<?xml version="1.0" standalone="no"?>
<!DOCTYPE svg PUBLIC "-//W3C//DTD SVG 20010904//EN"
 "http://www.w3.org/TR/2001/REC-SVG-20010904/DTD/svg10.dtd">
<svg version="1.0" xmlns="http://www.w3.org/2000/svg"
 width="181.000000pt" height="181.000000pt" viewBox="0 0 181.000000 181.000000"
 preserveAspectRatio="xMidYMid meet">
<metadata>
Created by potrace 1.14, written by Peter Selinger 2001-2017
</metadata>
<g transform="translate(0.000000,181.000000) scale(0.100000,-0.100000)"
fill="#000000" stroke="none">
<path d="M375 1787 c-56 -21 -147 -76 -160 -96 -7 -12 93 -111 112 -111 8 0
27 9 43 20 15 10 48 25 73 31 146 40 267 -116 336 -433 20 -95 41 -130 129
-222 141 -146 186 -177 329 -221 174 -55 243 -89 316 -154 79 -72 92 -163 35
-243 -23 -34 -17 -48 48 -108 l47 -43 18 24 c11 13 34 53 52 89 29 58 32 73
32 155 0 81 -3 95 -30 144 -46 84 -132 154 -270 221 -117 58 -119 59 -90 70
147 53 258 120 318 191 66 77 92 142 92 234 0 70 -4 89 -33 149 -64 135 -245
279 -380 304 -191 34 -354 -101 -462 -386 -15 -39 -20 -35 -45 33 -58 162
-162 300 -260 345 -71 33 -171 36 -250 7z m1070 -193 c92 -43 188 -184 188
-275 0 -131 -166 -236 -464 -294 -149 -29 -169 -30 -169 -9 0 63 80 314 139
435 41 87 98 146 156 162 36 10 109 1 150 -19z"/>
<path d="M90 1553 c-46 -72 -72 -150 -72 -218 -1 -160 117 -289 355 -390 37
-15 64 -32 60 -35 -4 -4 -26 -13 -48 -20 -170 -53 -322 -172 -364 -285 -19
-49 -22 -73 -18 -130 8 -102 76 -233 164 -315 96 -90 207 -142 303 -141 72 1
88 4 147 35 80 40 156 132 223 271 35 71 61 114 64 105 67 -187 113 -268 194
-341 65 -58 131 -86 207 -87 89 0 208 45 278 106 17 15 15 19 -35 69 -29 29
-58 53 -64 53 -6 0 -33 -12 -58 -26 -51 -29 -122 -38 -166 -22 -90 31 -177
191 -229 423 -10 44 -30 100 -46 125 -28 44 -216 240 -232 241 -4 1 -7 5 -5
11 1 5 -1 7 -6 4 -5 -3 -24 5 -43 18 -19 13 -81 38 -139 55 -215 66 -345 150
-367 237 -11 45 2 114 30 157 16 25 16 27 -23 76 -22 28 -49 55 -60 61 -18 9
-24 5 -50 -37z m714 -770 c-6 -52 -64 -265 -90 -332 -50 -125 -111 -214 -173
-249 -65 -37 -183 2 -270 89 -83 83 -120 189 -92 262 22 57 159 148 281 185
71 22 186 51 230 57 25 4 47 9 49 11 2 2 19 4 36 4 29 0 32 -3 29 -27z"/>
</g>
</svg>
